<svg width="24" height="16" viewBox="0 0 24 16" fill="none" xmlns="http://www.w3.org/2000/svg">
<path d="M4 9H9M12 12V4H15C15.5304 4 16.0391 4.21071 16.4142 4.58579C16.7893 4.96086 17 5.46957 17 6V7C17 7.53043 16.7893 8.03914 16.4142 8.41421C16.0391 8.78929 15.5304 9 15 9H12M20 4V12M9 12V6.5C9 5.83696 8.73661 5.20107 8.26777 4.73223C7.79893 4.26339 7.16304 4 6.5 4C5.83696 4 5.20107 4.26339 4.73223 4.73223C4.26339 5.20107 4 5.83696 4 6.5V12" stroke="#0084FF" stroke-width="2" stroke-linecap="round" stroke-linejoin="round"/>
</svg>
