<svg width="173" height="170" viewBox="0 0 173 170" fill="none" xmlns="http://www.w3.org/2000/svg">
<path d="M169.936 55.7002C167.765 55.4321 165.429 55.5845 164.974 53.5263C164.571 51.7109 166.316 50.3184 169.363 49.9818C172.413 49.6429 173.69 47.106 172.462 45.0681C171.151 42.9028 168.394 43.5614 167.185 45.4169C165.976 47.2723 165.188 48.5264 163.256 48.427C160.787 48.3003 160.382 45.3718 163.286 43.0504C165.727 41.0972 166.507 37.909 164.303 36.4875C162.326 35.2107 159.199 35.8747 158.998 40.3879C158.802 44.7996 156.627 47.3749 153.704 46.5105C151.388 45.8274 151.78 43.9447 151.405 41.8792C150.438 36.5751 142.468 39.9922 145.985 44.9985C148.453 48.5117 152.728 50.5975 151.664 53.4052C150.599 56.2131 146.21 65.1771 137.65 65.1251C124.126 65.052 127.271 55.1764 129.005 50.08C131.286 43.3623 136.104 41.0027 136.858 29.5386C137.314 22.6108 131.492 9.21679 125.569 3.21055C123.284 0.896041 121.179 0.0836626 118.144 0.00539051C115.209 -0.0710226 112.736 0.653637 110.409 2.90418C104.088 9.01555 98.0223 23.325 98.8972 30.3062C99.8288 37.738 103.875 42.7322 99.8459 49.4395C97.4157 53.4865 94.3128 54.4127 90.2764 54.4039C72.7155 54.373 83.6252 38.3995 83.247 39.7444C84.0587 36.852 88.9196 37.5242 92.9894 36.1678C98.7928 34.2366 94.4172 26.744 90.4879 30.4419C88.9558 31.8779 88.1536 33.624 85.8832 32.8009C83.0201 31.7534 82.8022 28.3873 85.2693 24.7231C87.7872 20.9848 85.6656 18.5887 83.3187 18.4404C80.6986 18.2768 79.4332 21.2937 80.2369 24.3189C81.1893 27.9135 79.1237 30.0297 77.0632 28.6629C75.4487 27.5974 75.5626 26.115 75.6943 23.9041C75.824 21.696 74.0023 19.524 71.6557 20.4946C69.4589 21.3945 68.9766 24.1966 71.228 26.2799C73.4808 28.3629 74.0532 30.5197 72.6531 31.7391C71.0621 33.1212 69.3153 31.5355 67.3699 30.5385C65.4176 29.5349 63.5862 30.7701 63.1223 32.5571C62.7778 33.8968 64.1397 37.0578 67.0631 36.4791C69.9888 35.9035 74.4532 37.4708 75.2856 39.0017C77.773 43.572 66.0374 53.632 76.1878 59.1618C81.194 61.8915 86.6867 65.5993 85.2394 68.703C85.2394 68.703 83.822 76.79 78.5871 80.4604C78.144 78.8051 77.0937 74.8303 76.5555 73.7175C73.9172 68.2821 67.7463 65.8665 62.5289 69.1292C57.3124 72.3889 49.7813 76.1195 49.7813 76.1195L49.1953 73.3744C48.6435 69.1649 54.6529 67.1946 58.5533 67.037C64.1081 66.8176 62.1835 59.1737 57.8153 61.4025C56.1127 62.2758 54.9701 63.5944 53.2006 62.3005C50.9625 60.6633 51.6262 57.6696 54.704 55.0964C57.8528 52.4606 56.6056 49.8359 54.594 49.1176C52.3461 48.3044 50.4778 50.6243 50.4139 53.4707C50.3379 56.8469 47.9973 58.1677 46.5425 56.4585C45.4038 55.1166 45.8794 53.8531 46.5518 51.9578C47.2253 50.0623 46.1808 47.7074 43.8896 47.956C41.7398 48.1946 40.6098 50.5151 42.0489 52.9044C43.4881 55.2882 43.4439 57.3156 41.9116 58.0306C40.1724 58.8358 39.0943 56.9587 37.6022 55.6461C36.1887 54.4067 34.2356 54.8922 33.3806 56.3333C32.7407 57.4146 33.1283 60.5171 35.8308 60.7547C38.5328 60.9892 41.3446 65.4549 41.1566 69.043C41.1566 69.043 41.138 83.9372 47.1913 86.3556C50.1473 87.5354 56.6959 85.0357 60.3999 83.7876C62.2996 83.1475 63.4521 83.9864 63.233 85.8675C62.9211 88.541 62.4564 96.2577 62.1114 98.45C62.0752 98.6722 62.0415 98.8947 62.007 99.1141C59.5515 107.178 45.1162 103.722 34.4049 105.013C23.5942 106.316 5.80188 110.798 1.2539 126.922C-4.02367 145.641 8.89653 156.027 11.5895 156.027C14.461 156.205 12.5421 153.559 9.63695 146.728C4.89883 135.583 20.7088 120.033 42.0285 124.053C76.6967 130.592 86.1632 118.489 91.3366 122.253C93.1908 123.802 96.2417 126.175 97.9469 127.797C99.3199 129.108 98.9702 130.49 97.0982 131.208C93.4511 132.611 85.548 135.822 84.0312 138.615C80.9208 144.34 90.6558 153.926 90.6558 153.926C93.339 156.832 92.8025 162.238 90.8752 164.145C88.9484 166.051 90.1243 168.526 91.8204 169.108C93.6192 169.73 95.3058 168.262 95.5102 166.941C95.8114 164.983 95.4444 162.849 97.2992 162.357C98.934 161.931 100.265 163.46 100.685 166.214C101.107 168.968 103.461 170.039 105.264 168.847C107.187 167.577 106.481 165.098 104.751 164.069C103.022 163.041 101.847 162.372 101.866 160.614C101.889 158.369 104.534 157.894 106.756 160.443C108.624 162.593 111.547 163.178 112.758 161.127C113.846 159.283 113.122 156.468 109.016 156.452C105 156.441 102.576 154.56 103.249 151.874C103.783 149.745 105.506 150.033 107.373 149.616C112.159 148.544 108.752 141.436 104.334 144.809C101.236 147.18 97.4118 149.958 95.142 146.366L93.8371 143.88C93.8371 143.88 102.014 141.943 108.115 141.125C114.216 140.306 117.417 134.509 115.968 128.643C114.642 123.276 106.712 111.714 105.563 109.964C118.93 100.962 123.747 88.0648 125.781 79.4594C126.134 77.9679 127.648 77.2844 128.372 77.3252C133.484 77.6142 142.159 76.9737 145.859 74.6122C153.899 69.479 153.791 59.74 158.507 57.543C160.087 56.8069 164.641 58.4547 166.651 60.6563C168.663 62.8644 171.634 61.13 172.153 59.847C172.844 58.1346 172.004 55.9548 169.936 55.7002Z" fill="white"/>
</svg>
