<svg width="295" height="137" viewBox="0 0 295 137" fill="none" xmlns="http://www.w3.org/2000/svg">
<g id="projectIcon/geko" clip-path="url(#clip0_49_737)">
<g id="text">
<path id="Vector" d="M195.418 52.8626H202.716V57.9555H192.01L186.908 52.8626V37.5454L192.01 32.4524H195.418V52.8626ZM199.923 43.8106H211.61V57.9555H204.064V48.8651H199.923V43.8106ZM196.766 37.5454V32.4524H207.144L211.61 37.5454V40.1014H203.101V37.5454H196.766Z" fill="white"/>
<path id="Vector_2" d="M223.837 57.9555H220.43L215.327 52.8627V42.6384L220.43 37.5454H223.837V57.9555ZM225.185 49.7684V46.213H229.671V42.6384H225.185V37.5454H232.404L237.508 42.6384V49.7684H225.185ZM225.185 57.9555V53.1893H236.622V55.3995L234.08 57.9555H225.185Z" fill="white"/>
<path id="Vector_3" d="M249.483 57.9555H246.076L240.973 52.8627V42.6384L246.076 37.5454H249.483V57.9555ZM250.831 42.6384V37.5454H258.013L263.116 42.6384V45.6941H254.605V42.6384H250.831ZM250.831 57.9555V53.1893H254.605V50.6333H263.116V52.8627L258.013 57.9555H250.831Z" fill="white"/>
<path id="Vector_4" d="M275.15 57.9555H266.639V29.7618H275.15V57.9555ZM276.477 55.0728V43.4263L280.406 37.5839L289.205 37.5646L276.477 55.0728ZM289.648 57.9555H280.406L279 53.8428L284.025 47.0778L289.648 57.9555Z" fill="white"/>
<path id="Vector_5" d="M218.332 71.3125H227.188V89.9352H218.332V71.3125ZM211.67 64.4321H233.85V69.9863H211.67V64.4321Z" fill="white"/>
<path id="Vector_6" d="M243.496 89.9352H240.089L234.987 84.8424V74.6181L240.089 69.5251H243.496V89.9352ZM244.845 81.7481V78.1927H249.331V74.6181H244.845V69.5251H252.064L257.166 74.6181V81.7481H244.845ZM244.845 89.9352V85.169H256.282V87.3792L253.739 89.9352H244.845Z" fill="white"/>
<path id="Vector_7" d="M269.316 89.9352H260.806V61.7416H269.316V89.9352ZM270.644 87.0525V75.406L274.572 69.5636L283.372 69.5444L270.644 87.0525ZM283.815 89.9352H274.572L273.167 85.8225L278.193 79.0575L283.815 89.9352Z" fill="white"/>
<g id="Vector 1" filter="url(#filter0_d_49_737)">
<path id="Vector_8" d="M196 85L223.11 99.7599H289.036" stroke="white" stroke-width="0.831774"/>
</g>
</g>
<g id="geko" filter="url(#filter1_d_49_737)">
<path id="Vector_9" d="M120.342 49.2485C118.857 49.0651 117.259 49.1694 116.948 47.7613C116.672 46.5195 117.866 45.5668 119.951 45.3366C122.037 45.1047 122.91 43.3693 122.07 41.9751C121.173 40.4938 119.287 40.9444 118.46 42.2138C117.633 43.483 117.094 44.341 115.773 44.2729C114.084 44.1863 113.807 42.1829 115.793 40.5948C117.463 39.2586 117.997 37.0776 116.489 36.1052C115.136 35.2317 112.997 35.6859 112.86 38.7734C112.726 41.7914 111.238 43.5532 109.238 42.9619C107.654 42.4946 107.922 41.2066 107.665 39.7936C107.004 36.1651 101.552 38.5027 103.957 41.9275C105.646 44.3309 108.571 45.7577 107.842 47.6785C107.114 49.5994 104.111 55.7317 98.2558 55.696C89.0037 55.646 91.1555 48.8902 92.3413 45.4037C93.9022 40.8082 97.1978 39.194 97.7141 31.3514C98.0259 26.6122 94.0428 17.4493 89.9909 13.3405C88.4278 11.7571 86.9881 11.2014 84.9117 11.1479C82.9037 11.0956 81.212 11.5913 79.6203 13.1309C75.2961 17.3117 71.1464 27.1007 71.7449 31.8765C72.3822 36.9606 75.1499 40.3771 72.3939 44.9656C70.7314 47.7341 68.6087 48.3677 65.8474 48.3617C53.8341 48.3405 61.2973 37.4131 61.0386 38.3332C61.5939 36.3545 64.9192 36.8144 67.7034 35.8865C71.6735 34.5653 68.6801 29.4397 65.9921 31.9694C64.944 32.9517 64.3952 34.1463 62.8421 33.5832C60.8834 32.8666 60.7344 30.5638 62.4221 28.0572C64.1446 25.4998 62.6932 23.8606 61.0877 23.7592C59.2952 23.6473 58.4296 25.7112 58.9794 27.7807C59.6309 30.2397 58.2179 31.6874 56.8083 30.7524C55.7038 30.0235 55.7818 29.0094 55.8718 27.4969C55.9606 25.9863 54.7144 24.5005 53.109 25.1645C51.6062 25.7801 51.2763 27.697 52.8164 29.1222C54.3576 30.5471 54.7492 32.0226 53.7914 32.8568C52.7029 33.8023 51.508 32.7175 50.1772 32.0355C48.8416 31.3489 47.5887 32.1939 47.2714 33.4164C47.0357 34.3329 47.9674 36.4953 49.9672 36.0994C51.9687 35.7056 55.0228 36.7779 55.5923 37.8251C57.2939 40.9516 49.2656 47.8336 56.2095 51.6166C59.6342 53.4839 63.3917 56.0205 62.4016 58.1437C62.4016 58.1437 61.432 63.676 57.8508 66.1869C57.5477 65.0545 56.8292 62.3353 56.461 61.5741C54.6561 57.8557 50.4346 56.2032 46.8655 58.4353C43.2969 60.6652 38.1449 63.2173 38.1449 63.2173L37.744 61.3394C37.3665 58.4597 41.4775 57.1118 44.1458 57.004C47.9458 56.8539 46.6292 51.6247 43.6409 53.1495C42.4761 53.7469 41.6945 54.6489 40.484 53.7637C38.9529 52.6437 39.4069 50.5958 41.5124 48.8355C43.6665 47.0323 42.8133 45.2368 41.4372 44.7454C39.8994 44.1891 38.6213 45.7761 38.5776 47.7233C38.5256 50.033 36.9244 50.9365 35.9292 49.7672C35.1502 48.8492 35.4755 47.9849 35.9355 46.6883C36.3963 45.3916 35.6818 43.7807 34.1143 43.9507C32.6437 44.114 31.8706 45.7014 32.8551 47.3359C33.8397 48.9666 33.8095 50.3536 32.7612 50.8427C31.5714 51.3936 30.8339 50.1094 29.8132 49.2115C28.8462 48.3636 27.5101 48.6957 26.9252 49.6816C26.4874 50.4213 26.7526 52.5438 28.6013 52.7063C30.4498 52.8667 32.3733 55.9217 32.2447 58.3763C32.2447 58.3763 32.232 68.5653 36.373 70.2198C38.3952 71.0269 42.8751 69.3168 45.409 68.463C46.7086 68.0251 47.497 68.599 47.3471 69.8859C47.1338 71.7148 46.8158 76.9938 46.5798 78.4935C46.5551 78.6456 46.532 78.7977 46.5084 78.9478C44.8286 84.4643 34.9535 82.1002 27.6259 82.9833C20.2304 83.8747 8.05865 86.9409 4.94739 97.9714C1.33702 110.777 10.1757 117.882 12.0179 117.882C13.9824 118.003 12.6696 116.194 10.6822 111.52C7.44087 103.896 18.2564 93.2583 32.8412 96.0087C56.5576 100.482 63.0336 92.2022 66.5727 94.7773C67.8412 95.8365 69.9283 97.4604 71.0948 98.5697C72.034 99.4663 71.7948 100.412 70.5142 100.903C68.0192 101.863 62.6127 104.059 61.5751 105.97C59.4472 109.887 66.1069 116.445 66.1069 116.445C67.9425 118.433 67.5755 122.131 66.257 123.435C64.9389 124.739 65.7434 126.432 66.9037 126.83C68.1342 127.256 69.288 126.252 69.4278 125.348C69.6339 124.008 69.3828 122.548 70.6517 122.212C71.7701 121.921 72.6809 122.967 72.9678 124.85C73.2563 126.734 74.8672 127.467 76.1004 126.652C77.4158 125.783 76.933 124.088 75.7498 123.384C74.5664 122.68 73.7631 122.223 73.7755 121.02C73.7917 119.484 75.6013 119.159 77.121 120.902C78.3992 122.373 80.3987 122.774 81.2269 121.37C81.9714 120.109 81.4758 118.183 78.6672 118.173C75.92 118.165 74.2618 116.878 74.7222 115.041C75.0875 113.584 76.2661 113.782 77.5434 113.496C80.8173 112.763 78.4865 107.9 75.4643 110.208C73.3446 111.829 70.7287 113.73 69.176 111.273L68.2832 109.572C68.2832 109.572 73.8773 108.247 78.0508 107.688C82.2246 107.127 84.4142 103.162 83.4228 99.1482C82.5161 95.4769 77.0906 87.5672 76.3047 86.3701C85.4495 80.2117 88.7446 71.389 90.136 65.5021C90.3773 64.4817 91.4133 64.0142 91.9083 64.0421C95.4053 64.2398 101.34 63.8017 103.871 62.1861C109.371 58.6745 109.297 52.0121 112.524 50.5091C113.605 50.0056 116.72 51.1329 118.095 52.639C119.471 54.1495 121.504 52.963 121.859 52.0853C122.332 50.9139 121.757 49.4227 120.342 49.2485Z" fill="white"/>
</g>
<g id="hexagonal">
<path id="Vector_3_2" d="M140.619 74.0229L125.04 83.4018C125.413 86.6354 123.926 89.9394 120.96 91.7248C116.917 94.1593 111.669 92.8484 109.239 88.7972C106.809 84.7454 108.118 79.4877 112.162 77.0532C115.128 75.2677 118.737 75.5039 121.412 77.3514L133.505 70.0715L123.041 64.2606L95.6292 80.7629L96.1875 112.799L108.829 119.82L126.726 109.047C126.467 107.456 127.167 105.796 128.631 104.915C130.548 103.76 133.037 104.382 134.19 106.303C135.341 108.225 134.721 110.718 132.803 111.872C131.367 112.736 129.613 112.605 128.338 111.678L111.942 121.549L124.157 128.333L151.569 111.831L151.012 79.7947L140.619 74.0229Z" fill="white"/>
<path id="Vector_4_2" d="M181.081 25.3223L153.111 9.7887L140.816 17.1905L141.182 38.0361C142.687 38.6069 143.772 40.045 143.801 41.7553C143.841 43.9965 142.059 45.8452 139.822 45.8844C137.587 45.9239 135.741 44.139 135.701 41.8981C135.673 40.2206 136.664 38.7636 138.101 38.1202L137.766 19.027L125.699 26.2911L126.256 58.3271L154.227 73.861L164.736 67.5343L164.27 49.383C161.277 48.1145 159.141 45.1904 159.052 41.7248C158.93 36.9996 162.655 33.0703 167.37 32.9489C172.086 32.827 176.007 36.5587 176.129 41.2839C176.219 44.7495 174.236 47.7802 171.313 49.2011L171.676 63.3565L181.638 57.3587L181.081 25.3223Z" fill="white"/>
<path id="Vector_5_2" d="M213.476 92.6728L213.233 78.7058L185.262 63.1718L157.851 79.6741L158.058 91.5707L174.055 100.488C176.667 98.5514 180.267 98.1949 183.291 99.8804C187.414 102.178 188.897 107.389 186.603 111.52C184.31 115.65 179.108 117.136 174.985 114.838C171.962 113.153 170.366 109.9 170.631 106.656L158.2 99.7275L158.409 111.711L186.379 127.244L213.791 110.742L213.538 96.2339L195.372 86.1951C194.128 87.2178 192.344 87.4436 190.849 86.6174C188.891 85.5348 188.178 83.066 189.258 81.103C190.338 79.1407 192.803 78.4272 194.762 79.5098C196.228 80.3198 196.994 81.9068 196.836 83.4768L213.476 92.6728Z" fill="white"/>
</g>
<g id="circles">
<path id="Vector_6_2" d="M170.659 39.7779C171.662 41.4486 171.122 43.6164 169.455 44.6204C167.787 45.6243 165.624 45.0839 164.621 43.4133C163.619 41.7424 164.159 39.5744 165.827 38.5705C167.493 37.5665 169.658 38.107 170.659 39.7779Z" fill="url(#paint0_radial_49_737)"/>
<path id="Vector_7_2" d="M119.58 82.5714C120.582 84.2419 120.043 86.4102 118.375 87.414C116.708 88.4179 114.543 87.8773 113.542 86.2068C112.54 84.5361 113.079 82.3676 114.747 81.3637C116.414 80.3601 118.578 80.9007 119.58 82.5714Z" fill="url(#paint1_radial_49_737)"/>
<path id="Vector_8_2" d="M182.119 105.652C183.122 107.323 182.581 109.491 180.914 110.495C179.246 111.499 177.083 110.959 176.08 109.288C175.079 107.617 175.618 105.449 177.285 104.445C178.953 103.441 181.117 103.982 182.119 105.652Z" fill="url(#paint2_radial_49_737)"/>
</g>
<path id="triangle" d="M164.484 36.3314C161.635 38.046 160.711 41.7632 162.422 44.617C163.229 45.9648 164.489 46.8573 165.889 47.2644L166.357 68.4506L154.315 75.7002L140.462 68.1313L120.611 80.0819C118.699 78.2492 115.749 77.8166 113.374 79.2462C110.526 80.961 109.601 84.6781 111.312 87.5318C113.023 90.3857 116.733 91.312 119.581 89.5974C121.914 88.1933 122.926 85.4552 122.283 82.9407L140.471 71.9916L152.714 78.6861L153.065 94.4568L173.32 105.917C172.944 107.418 173.123 109.056 173.979 110.484C175.69 113.337 179.4 114.264 182.249 112.549C185.096 110.835 186.022 107.118 184.309 104.264C182.598 101.41 178.889 100.484 176.041 102.199C175.65 102.434 175.308 102.715 174.994 103.019L156.367 92.4417L156.198 78.498L169.712 70.3623L169.272 47.2749C169.758 47.1365 170.237 46.9557 170.692 46.6824C173.539 44.9676 174.465 41.2509 172.754 38.3972C171.041 35.5434 167.332 34.6166 164.484 36.3314ZM170.184 45.8351C169.578 46.1993 168.927 46.4181 168.269 46.5076L168.715 69.811L155.206 77.9436L155.388 93.0219L175.203 104.251C175.57 103.785 176.012 103.368 176.548 103.045C178.93 101.611 182.032 102.386 183.465 104.773C184.896 107.16 184.123 110.269 181.741 111.703C179.358 113.138 176.256 112.362 174.824 109.974C173.967 108.546 173.915 106.865 174.509 105.433L154.04 93.8733L153.687 78.0922L140.447 70.8524L121.114 82.4934C122.055 84.7642 121.239 87.4461 119.073 88.75C116.691 90.1841 113.589 89.4093 112.158 87.0228C110.726 84.636 111.5 81.5276 113.882 80.0935C116.089 78.7646 118.897 79.3506 120.439 81.3398L140.486 69.2702L154.339 76.8394L167.357 69.0023L166.862 46.4785C165.419 46.266 164.075 45.4553 163.268 44.1079C161.835 41.721 162.609 38.613 164.992 37.1786C167.375 35.7445 170.477 36.5195 171.908 38.9062C173.339 41.2926 172.566 44.401 170.184 45.8351Z" fill="#FDFFAF"/>
</g>
<defs>
<filter id="filter0_d_49_737" x="190.801" y="79.6348" width="103.235" height="25.541" filterUnits="userSpaceOnUse" color-interpolation-filters="sRGB">
<feFlood flood-opacity="0" result="BackgroundImageFix"/>
<feColorMatrix in="SourceAlpha" type="matrix" values="0 0 0 0 0 0 0 0 0 0 0 0 0 0 0 0 0 0 127 0" result="hardAlpha"/>
<feOffset/>
<feGaussianBlur stdDeviation="2.5"/>
<feComposite in2="hardAlpha" operator="out"/>
<feColorMatrix type="matrix" values="0 0 0 0 0.301961 0 0 0 0 1 0 0 0 0 0.917647 0 0 0 1 0"/>
<feBlend mode="normal" in2="BackgroundImageFix" result="effect1_dropShadow_49_737"/>
<feBlend mode="normal" in="SourceGraphic" in2="effect1_dropShadow_49_737" result="shape"/>
</filter>
<filter id="filter1_d_49_737" x="-15.9104" y="-4.85583" width="158.297" height="155.838" filterUnits="userSpaceOnUse" color-interpolation-filters="sRGB">
<feFlood flood-opacity="0" result="BackgroundImageFix"/>
<feColorMatrix in="SourceAlpha" type="matrix" values="0 0 0 0 0 0 0 0 0 0 0 0 0 0 0 0 0 0 127 0" result="hardAlpha"/>
<feOffset dy="4"/>
<feGaussianBlur stdDeviation="10"/>
<feComposite in2="hardAlpha" operator="out"/>
<feColorMatrix type="matrix" values="0 0 0 0 0.301961 0 0 0 0 1 0 0 0 0 1 0 0 0 1 0"/>
<feBlend mode="normal" in2="BackgroundImageFix" result="effect1_dropShadow_49_737"/>
<feBlend mode="normal" in="SourceGraphic" in2="effect1_dropShadow_49_737" result="shape"/>
</filter>
<radialGradient id="paint0_radial_49_737" cx="0" cy="0" r="1" gradientUnits="userSpaceOnUse" gradientTransform="translate(167.64 41.5956) rotate(59.0484) scale(3.5272 3.52426)">
<stop stop-color="#02FF3A"/>
<stop offset="1" stop-color="#02E1FF" stop-opacity="0"/>
</radialGradient>
<radialGradient id="paint1_radial_49_737" cx="0" cy="0" r="1" gradientUnits="userSpaceOnUse" gradientTransform="translate(116.561 84.3889) rotate(59.0485) scale(3.52744 3.52425)">
<stop stop-color="#02FF3A"/>
<stop offset="1" stop-color="#02E1FF" stop-opacity="0"/>
</radialGradient>
<radialGradient id="paint2_radial_49_737" cx="0" cy="0" r="1" gradientUnits="userSpaceOnUse" gradientTransform="translate(179.099 107.47) rotate(59.0485) scale(3.52744 3.52425)">
<stop stop-color="#02FF3A"/>
<stop offset="1" stop-color="#02E1FF" stop-opacity="0"/>
</radialGradient>
<clipPath id="clip0_49_737">
<rect width="295" height="137" fill="white"/>
</clipPath>
</defs>
</svg>
