<svg width="16" height="16" viewBox="0 0 16 16" fill="none" xmlns="http://www.w3.org/2000/svg">
<path d="M12.25 0H3.75C1.67893 0 0 1.67893 0 3.75V12.25C0 14.3211 1.67893 16 3.75 16H12.25C14.3211 16 16 14.3211 16 12.25V3.75C16 1.67893 14.3211 0 12.25 0Z" fill="#007ACC"/>
<path d="M3.53817 8.05305L3.53311 8.7083H5.61561V14.6257H7.08867V8.7083H9.17117V8.06574C9.17117 7.71017 9.16361 7.41305 9.15342 7.40542C9.1458 7.3953 7.87849 7.39017 6.34199 7.39274L3.5458 7.40036L3.53817 8.05305ZM12.9104 7.38174C13.3167 7.48336 13.6266 7.66367 13.911 7.95824C14.0584 8.11574 14.2767 8.40274 14.2945 8.4713C14.2996 8.49161 13.6037 8.95892 13.1822 9.22049C13.1669 9.23067 13.1059 9.16461 13.0374 9.06305C12.8317 8.76336 12.6158 8.6338 12.2856 8.61099C11.8005 8.57792 11.4882 8.83192 11.4907 9.25605C11.4907 9.38049 11.5085 9.45411 11.5593 9.55574C11.6659 9.77667 11.864 9.90874 12.4863 10.1779C13.6317 10.6707 14.1218 10.9957 14.4266 11.4579C14.7669 11.9735 14.8431 12.7964 14.612 13.4084C14.358 14.0738 13.7282 14.5259 12.8418 14.6757C12.5675 14.724 11.9174 14.7164 11.6228 14.663C10.9802 14.5487 10.3707 14.2313 9.99486 13.8148C9.84755 13.6522 9.56055 13.2281 9.57836 13.1976C9.58592 13.1875 9.65199 13.1469 9.72561 13.1037C9.79674 13.063 10.066 12.9081 10.3199 12.7608L10.7796 12.4941L10.8761 12.6364C11.0107 12.842 11.3053 13.124 11.4831 13.2179C11.9935 13.4872 12.6945 13.449 13.0399 13.1392C13.1872 13.0046 13.2482 12.8649 13.2482 12.6592C13.2482 12.4738 13.2253 12.3925 13.1288 12.2529C13.0044 12.0751 12.7504 11.9252 12.0291 11.6129C11.2037 11.2573 10.8482 11.0364 10.5231 10.6859C10.3352 10.4827 10.1574 10.1576 10.0837 9.88586C10.0228 9.65986 10.0075 9.09349 10.0558 8.86492C10.2259 8.06749 10.8279 7.5113 11.6964 7.34617C11.9784 7.29286 12.6335 7.31317 12.9104 7.38174Z" fill="white"/>
</svg>
